<mxfile host="app.diagrams.net" modified="2021-04-22T08:22:39.446Z" agent="5.0 (Windows NT 10.0; WOW64) AppleWebKit/537.36 (KHTML, like Gecko) Chrome/86.0.4240.198 Safari/537.36" etag="56jg6WzYSe_wemW8MKq8" version="14.0.1" type="github">
  <diagram id="2hZAy7Uzn7Auo7hQe65R" name="Page-1">
    <mxGraphModel dx="1376" dy="725" grid="1" gridSize="10" guides="1" tooltips="1" connect="1" arrows="1" fold="1" page="1" pageScale="1" pageWidth="827" pageHeight="1169" math="0" shadow="0">
      <root>
        <mxCell id="0" />
        <mxCell id="1" parent="0" />
      </root>
    </mxGraphModel>
  </diagram>
</mxfile>
